NotoSerifTamil-ExtraCondensedBlack.ufo
<glyph name="asterisk" format="2">
  <advance width="419"/>
  <unicode hex="002A"/>
  <outline>
    <contour>
      <point x="159" y="363" type="line"/>
      <point x="266" y="363" type="line"/>
      <point x="232" y="528" type="line"/>
      <point x="354" y="421" type="line"/>
      <point x="398" y="524" type="line"/>
      <point x="276" y="562" type="line"/>
      <point x="398" y="599" type="line"/>
      <point x="354" y="703" type="line"/>
      <point x="232" y="596" type="line"/>
      <point x="267" y="760" type="line"/>
      <point x="159" y="760" type="line"/>
      <point x="191" y="594" type="line"/>
      <point x="69" y="705" type="line"/>
      <point x="26" y="600" type="line"/>
      <point x="148" y="562" type="line"/>
      <point x="26" y="523" type="line"/>
      <point x="69" y="420" type="line"/>
      <point x="190" y="530" type="line"/>
    </contour>
  </outline>
</glyph>
<glyph name="hyphen" format="2">
  <advance width="259"/>
  <unicode hex="002D"/>
  <outline>
    <contour>
      <point x="21" y="216" type="line"/>
      <point x="238" y="216" type="line"/>
      <point x="238" y="329" type="line"/>
      <point x="21" y="329" type="line"/>
    </contour>
  </outline>
</glyph>
<glyph name="period" format="2">
  <advance width="273"/>
  <unicode hex="002E"/>
  <outline>
    <contour>
      <point x="136" y="-8" type="curve" smooth="yes"/>
      <point x="179" y="-8"/>
      <point x="217" y="12"/>
      <point x="217" y="74" type="curve" smooth="yes"/>
      <point x="217" y="136"/>
      <point x="179" y="156"/>
      <point x="136" y="156" type="curve" smooth="yes"/>
      <point x="91" y="156"/>
      <point x="56" y="136"/>
      <point x="56" y="74" type="curve" smooth="yes"/>
      <point x="56" y="12"/>
      <point x="91" y="-8"/>
    </contour>
  </outline>
</glyph>
<glyph name="zero" format="2">
  <advance width="466"/>
  <unicode hex="0030"/>
  <outline>
    <contour>
      <point x="233" y="-10" type="curve" smooth="yes"/>
      <point x="389" y="-10"/>
      <point x="444" y="134"/>
      <point x="444" y="358" type="curve" smooth="yes"/>
      <point x="444" y="584"/>
      <point x="389" y="724"/>
      <point x="234" y="724" type="curve" smooth="yes"/>
      <point x="70" y="724"/>
      <point x="21" y="582"/>
      <point x="21" y="359" type="curve" smooth="yes"/>
      <point x="21" y="133"/>
      <point x="70" y="-10"/>
    </contour>
    <contour>
      <point x="233" y="57" type="curve" smooth="yes"/>
      <point x="185" y="57"/>
      <point x="182" y="168"/>
      <point x="182" y="358" type="curve" smooth="yes"/>
      <point x="182" y="548"/>
      <point x="185" y="657"/>
      <point x="234" y="657" type="curve" smooth="yes"/>
      <point x="280" y="657"/>
      <point x="283" y="548"/>
      <point x="283" y="358" type="curve" smooth="yes"/>
      <point x="283" y="168"/>
      <point x="280" y="57"/>
    </contour>
  </outline>
</glyph>
<glyph name="one" format="2">
  <advance width="466"/>
  <unicode hex="0031"/>
  <outline>
    <contour>
      <point x="64" y="0" type="line"/>
      <point x="437" y="0" type="line"/>
      <point x="437" y="56" type="line"/>
      <point x="384" y="56" type="line" smooth="yes"/>
      <point x="352" y="56"/>
      <point x="335" y="80"/>
      <point x="335" y="119" type="curve" smooth="yes"/>
      <point x="335" y="718" type="line"/>
      <point x="211" y="718" type="line"/>
      <point x="153" y="670" type="line" smooth="yes"/>
      <point x="96" y="623"/>
      <point x="53" y="606"/>
      <point x="20" y="596" type="curve"/>
      <point x="20" y="547"/>
      <point x="44" y="517"/>
      <point x="73" y="517" type="curve" smooth="yes"/>
      <point x="107" y="517"/>
      <point x="141" y="548"/>
      <point x="181" y="606" type="curve"/>
      <point x="181" y="119" type="line" smooth="yes"/>
      <point x="181" y="70"/>
      <point x="158" y="56"/>
      <point x="132" y="56" type="curve" smooth="yes"/>
      <point x="64" y="56" type="line"/>
    </contour>
  </outline>
</glyph>
<glyph name="two" format="2">
  <advance width="466"/>
  <unicode hex="0032"/>
  <outline>
    <contour>
      <point x="22" y="0" type="line"/>
      <point x="440" y="0" type="line"/>
      <point x="444" y="220" type="line"/>
      <point x="384" y="220" type="line"/>
      <point x="375" y="185" type="line" smooth="yes"/>
      <point x="363" y="138"/>
      <point x="329" y="118"/>
      <point x="307" y="118" type="curve" smooth="yes"/>
      <point x="128" y="118" type="line"/>
      <point x="240" y="229" type="line" smooth="yes"/>
      <point x="348" y="337"/>
      <point x="424" y="433"/>
      <point x="424" y="550" type="curve" smooth="yes"/>
      <point x="424" y="654"/>
      <point x="355" y="724"/>
      <point x="216" y="724" type="curve" smooth="yes"/>
      <point x="84" y="724"/>
      <point x="22" y="651"/>
      <point x="22" y="582" type="curve" smooth="yes"/>
      <point x="22" y="507"/>
      <point x="83" y="488"/>
      <point x="149" y="488" type="curve"/>
      <point x="149" y="611"/>
      <point x="174" y="660"/>
      <point x="216" y="660" type="curve" smooth="yes"/>
      <point x="243" y="660"/>
      <point x="267" y="631"/>
      <point x="267" y="549" type="curve" smooth="yes"/>
      <point x="267" y="448"/>
      <point x="236" y="368"/>
      <point x="130" y="237" type="curve" smooth="yes"/>
      <point x="22" y="103" type="line"/>
    </contour>
  </outline>
</glyph>
<glyph name="five" format="2">
  <advance width="466"/>
  <unicode hex="0035"/>
  <outline>
    <contour>
      <point x="205" y="-10" type="curve" smooth="yes"/>
      <point x="286" y="-10"/>
      <point x="434" y="37"/>
      <point x="434" y="220" type="curve" smooth="yes"/>
      <point x="434" y="364"/>
      <point x="348" y="436"/>
      <point x="203" y="436" type="curve" smooth="yes"/>
      <point x="180" y="436"/>
      <point x="134" y="429"/>
      <point x="116" y="420" type="curve"/>
      <point x="131" y="597" type="line"/>
      <point x="309" y="597" type="line" smooth="yes"/>
      <point x="330" y="597"/>
      <point x="334" y="583"/>
      <point x="342" y="557" type="curve" smooth="yes"/>
      <point x="352" y="524" type="line"/>
      <point x="409" y="524" type="line"/>
      <point x="405" y="714" type="line"/>
      <point x="79" y="714" type="line"/>
      <point x="48" y="371" type="line"/>
      <point x="87" y="350" type="line"/>
      <point x="116" y="358"/>
      <point x="141" y="368"/>
      <point x="172" y="368" type="curve" smooth="yes"/>
      <point x="240" y="368"/>
      <point x="276" y="319"/>
      <point x="276" y="220" type="curve" smooth="yes"/>
      <point x="276" y="97"/>
      <point x="231" y="61"/>
      <point x="186" y="61" type="curve" smooth="yes"/>
      <point x="118" y="61"/>
      <point x="101" y="132"/>
      <point x="101" y="190" type="curve"/>
      <point x="58" y="190"/>
      <point x="24" y="166"/>
      <point x="24" y="118" type="curve" smooth="yes"/>
      <point x="24" y="51"/>
      <point x="78" y="-10"/>
    </contour>
  </outline>
</glyph>
<glyph name="question" format="2">
  <advance width="490"/>
  <unicode hex="003F"/>
  <outline>
    <contour>
      <point x="193" y="231" type="line"/>
      <point x="244" y="231" type="line"/>
      <point x="273" y="323" type="line"/>
      <point x="389" y="379"/>
      <point x="442" y="434"/>
      <point x="442" y="540" type="curve" smooth="yes"/>
      <point x="442" y="656"/>
      <point x="356" y="724"/>
      <point x="221" y="724" type="curve" smooth="yes"/>
      <point x="87" y="724"/>
      <point x="28" y="664"/>
      <point x="28" y="603" type="curve" smooth="yes"/>
      <point x="28" y="543"/>
      <point x="78" y="525"/>
      <point x="167" y="525" type="curve"/>
      <point x="167" y="612"/>
      <point x="187" y="661"/>
      <point x="222" y="661" type="curve" smooth="yes"/>
      <point x="254" y="661"/>
      <point x="273" y="615"/>
      <point x="273" y="552" type="curve" smooth="yes"/>
      <point x="273" y="471"/>
      <point x="258" y="395"/>
      <point x="164" y="349" type="curve"/>
    </contour>
    <contour>
      <point x="216" y="-8" type="curve" smooth="yes"/>
      <point x="259" y="-8"/>
      <point x="296" y="12"/>
      <point x="296" y="74" type="curve" smooth="yes"/>
      <point x="296" y="136"/>
      <point x="259" y="156"/>
      <point x="216" y="156" type="curve" smooth="yes"/>
      <point x="171" y="156"/>
      <point x="136" y="136"/>
      <point x="136" y="74" type="curve" smooth="yes"/>
      <point x="136" y="12"/>
      <point x="171" y="-8"/>
    </contour>
  </outline>
</glyph>
<glyph name="bracketleft" format="2">
  <advance width="379"/>
  <unicode hex="005B"/>
  <outline>
    <contour>
      <point x="83" y="-128" type="line"/>
      <point x="348" y="-128" type="line"/>
      <point x="348" y="-72" type="line"/>
      <point x="313" y="-72" type="line" smooth="yes"/>
      <point x="275" y="-72"/>
      <point x="244" y="-63"/>
      <point x="244" y="0" type="curve" smooth="yes"/>
      <point x="244" y="632" type="line" smooth="yes"/>
      <point x="244" y="695"/>
      <point x="275" y="704"/>
      <point x="313" y="704" type="curve" smooth="yes"/>
      <point x="348" y="704" type="line"/>
      <point x="348" y="760" type="line"/>
      <point x="83" y="760" type="line"/>
    </contour>
  </outline>
</glyph>
<glyph name="backslash" format="2">
  <advance width="240"/>
  <unicode hex="005C"/>
  <outline>
    <contour>
      <point x="172" y="-121" type="line"/>
      <point x="240" y="-121" type="line"/>
      <point x="68" y="760" type="line"/>
      <point x="0" y="760" type="line"/>
    </contour>
  </outline>
</glyph>
<glyph name="underscore" format="2">
  <advance width="382"/>
  <unicode hex="005F"/>
  <outline>
    <contour>
      <point x="-5" y="-142" type="line"/>
      <point x="386" y="-142" type="line"/>
      <point x="386" y="-83" type="line"/>
      <point x="-5" y="-83" type="line"/>
    </contour>
  </outline>
</glyph>
<glyph name="twosuperior" format="2">
  <advance width="333"/>
  <unicode hex="00B2"/>
  <outline>
    <contour>
      <point x="19" y="387" type="line"/>
      <point x="309" y="387" type="line"/>
      <point x="313" y="538" type="line"/>
      <point x="281" y="538" type="line"/>
      <point x="276" y="510" type="line" smooth="yes"/>
      <point x="273" y="491"/>
      <point x="263" y="478"/>
      <point x="242" y="478" type="curve"/>
      <point x="91" y="478" type="line"/>
      <point x="139" y="515" type="line"/>
      <point x="270" y="605"/>
      <point x="308" y="638"/>
      <point x="308" y="706" type="curve" smooth="yes"/>
      <point x="308" y="774"/>
      <point x="270" y="825"/>
      <point x="165" y="825" type="curve" smooth="yes"/>
      <point x="66" y="825"/>
      <point x="21" y="784"/>
      <point x="21" y="735" type="curve" smooth="yes"/>
      <point x="21" y="699"/>
      <point x="43" y="683"/>
      <point x="109" y="683" type="curve"/>
      <point x="109" y="733"/>
      <point x="113" y="773"/>
      <point x="152" y="773" type="curve" smooth="yes"/>
      <point x="177" y="773"/>
      <point x="191" y="749"/>
      <point x="191" y="711" type="curve" smooth="yes"/>
      <point x="191" y="653"/>
      <point x="160" y="617"/>
      <point x="100" y="555" type="curve" smooth="yes"/>
      <point x="19" y="471" type="line"/>
    </contour>
  </outline>
</glyph>
<glyph name="anudatta-deva" format="2">
  <unicode hex="0952"/>
  <anchor x="0" y="0" name="_bottom"/>
  <outline>
    <contour>
      <point x="-203" y="-553" type="line"/>
      <point x="203" y="-553" type="line"/>
      <point x="203" y="-456" type="line"/>
      <point x="-203" y="-456" type="line"/>
    </contour>
  </outline>
</glyph>
<glyph name="a-tamil" format="2">
  <advance width="1162"/>
  <unicode hex="0B85"/>
  <note>
uni0B85
</note>
  <anchor x="565" y="0" name="bottom"/>
  <anchor x="372" y="-156" name="nukta"/>
  <anchor x="563" y="576" name="top"/>
  <anchor x="563" y="576" name="vedic"/>
  <outline>
    <contour>
      <point x="928" y="-221" type="line"/>
      <point x="1105" y="-221" type="line"/>
      <point x="1105" y="576" type="line"/>
      <point x="928" y="576" type="line"/>
      <point x="928" y="157" type="line"/>
      <point x="105" y="157" type="line" smooth="yes"/>
      <point x="58" y="157"/>
      <point x="22" y="125"/>
      <point x="22" y="74" type="curve" smooth="yes"/>
      <point x="22" y="-58"/>
      <point x="175" y="-156"/>
      <point x="372" y="-156" type="curve" smooth="yes"/>
      <point x="634" y="-156"/>
      <point x="843" y="-22"/>
      <point x="843" y="231" type="curve" smooth="yes"/>
      <point x="843" y="456"/>
      <point x="703" y="581"/>
      <point x="520" y="581" type="curve" smooth="yes"/>
      <point x="367" y="581"/>
      <point x="294" y="479"/>
      <point x="294" y="374" type="curve" smooth="yes"/>
      <point x="294" y="276"/>
      <point x="360" y="211"/>
      <point x="444" y="211" type="curve" smooth="yes"/>
      <point x="524" y="211"/>
      <point x="594" y="260"/>
      <point x="594" y="363" type="curve" smooth="yes"/>
      <point x="594" y="446"/>
      <point x="544" y="507"/>
      <point x="489" y="540" type="curve"/>
      <point x="423" y="527" type="line"/>
      <point x="476" y="495"/>
      <point x="500" y="442"/>
      <point x="500" y="382" type="curve" smooth="yes"/>
      <point x="500" y="338"/>
      <point x="478" y="296"/>
      <point x="433" y="296" type="curve" smooth="yes"/>
      <point x="398" y="296"/>
      <point x="368" y="322"/>
      <point x="368" y="384" type="curve" smooth="yes"/>
      <point x="368" y="443"/>
      <point x="406" y="510"/>
      <point x="498" y="510" type="curve" smooth="yes"/>
      <point x="618" y="510"/>
      <point x="680" y="420"/>
      <point x="680" y="252" type="curve" smooth="yes"/>
      <point x="680" y="7"/>
      <point x="530" y="-86"/>
      <point x="343" y="-86" type="curve" smooth="yes"/>
      <point x="209" y="-86"/>
      <point x="102" y="-11"/>
      <point x="102" y="60" type="curve" smooth="yes"/>
      <point x="102" y="79"/>
      <point x="113" y="88"/>
      <point x="132" y="88" type="curve" smooth="yes"/>
      <point x="928" y="88" type="line"/>
    </contour>
  </outline>
</glyph>
<glyph name="e-tamil" format="2">
  <advance width="819"/>
  <unicode hex="0B8E"/>
  <note>
uni0B8E
</note>
  <anchor x="428" y="0" name="bottom"/>
  <anchor x="428" y="0" name="nukta"/>
  <anchor x="430" y="576" name="top"/>
  <anchor x="431" y="576" name="vedic"/>
  <outline>
    <contour>
      <point x="244" y="-5" type="curve" smooth="yes"/>
      <point x="350" y="-5"/>
      <point x="424" y="62"/>
      <point x="424" y="175" type="curve" smooth="yes"/>
      <point x="424" y="267"/>
      <point x="372" y="342"/>
      <point x="278" y="342" type="curve" smooth="yes"/>
      <point x="172" y="342"/>
      <point x="117" y="241"/>
      <point x="113" y="117" type="curve"/>
      <point x="155" y="90" type="line"/>
      <point x="159" y="179"/>
      <point x="179" y="235"/>
      <point x="220" y="235" type="curve" smooth="yes"/>
      <point x="248" y="235"/>
      <point x="267" y="205"/>
      <point x="267" y="160" type="curve" smooth="yes"/>
      <point x="267" y="106"/>
      <point x="249" y="77"/>
      <point x="211" y="77" type="curve" smooth="yes"/>
      <point x="161" y="77"/>
      <point x="114" y="150"/>
      <point x="114" y="261" type="curve" smooth="yes"/>
      <point x="114" y="419"/>
      <point x="199" y="509"/>
      <point x="382" y="509" type="curve" smooth="yes"/>
      <point x="532" y="509" type="line"/>
      <point x="532" y="0" type="line"/>
      <point x="709" y="0" type="line"/>
      <point x="709" y="509" type="line"/>
      <point x="804" y="509" type="line"/>
      <point x="804" y="576" type="line"/>
      <point x="366" y="576" type="line" smooth="yes"/>
      <point x="154" y="576"/>
      <point x="42" y="455"/>
      <point x="42" y="262" type="curve" smooth="yes"/>
      <point x="42" y="109"/>
      <point x="119" y="-5"/>
    </contour>
  </outline>
</glyph>
<glyph name="ja-tamil" format="2">
  <advance width="854"/>
  <unicode hex="0B9C"/>
  <note>
uni0B9C
</note>
  <anchor x="422" y="0" name="bottom"/>
  <anchor x="422" y="-331" name="nukta"/>
  <anchor x="431" y="576" name="top"/>
  <anchor x="426" y="576" name="vedic"/>
  <outline>
    <contour>
      <point x="224" y="-331" type="curve" smooth="yes"/>
      <point x="428" y="-331"/>
      <point x="449" y="-29"/>
      <point x="575" y="-29" type="curve" smooth="yes"/>
      <point x="630" y="-29"/>
      <point x="654" y="-74"/>
      <point x="654" y="-136" type="curve" smooth="yes"/>
      <point x="654" y="-207"/>
      <point x="624" y="-251"/>
      <point x="567" y="-251" type="curve" smooth="yes"/>
      <point x="542" y="-251"/>
      <point x="521" y="-243"/>
      <point x="495" y="-225" type="curve"/>
      <point x="466" y="-280" type="line"/>
      <point x="506" y="-313"/>
      <point x="553" y="-331"/>
      <point x="615" y="-331" type="curve" smooth="yes"/>
      <point x="726" y="-331"/>
      <point x="810" y="-266"/>
      <point x="810" y="-139" type="curve" smooth="yes"/>
      <point x="810" y="-19"/>
      <point x="749" y="51"/>
      <point x="636" y="51" type="curve" smooth="yes"/>
      <point x="408" y="51"/>
      <point x="379" y="-248"/>
      <point x="275" y="-248" type="curve" smooth="yes"/>
      <point x="226" y="-248"/>
      <point x="200" y="-208"/>
      <point x="200" y="-125" type="curve" smooth="yes"/>
      <point x="200" y="6"/>
      <point x="235" y="51"/>
      <point x="454" y="82" type="curve" smooth="yes"/>
      <point x="669" y="112"/>
      <point x="812" y="161"/>
      <point x="812" y="356" type="curve" smooth="yes"/>
      <point x="812" y="498"/>
      <point x="732" y="582"/>
      <point x="610" y="582" type="curve" smooth="yes"/>
      <point x="538" y="582"/>
      <point x="463" y="550"/>
      <point x="438" y="471" type="curve"/>
      <point x="410" y="546"/>
      <point x="351" y="582"/>
      <point x="261" y="582" type="curve" smooth="yes"/>
      <point x="134" y="582"/>
      <point x="50" y="487"/>
      <point x="50" y="346" type="curve" smooth="yes"/>
      <point x="50" y="232"/>
      <point x="112" y="153"/>
      <point x="201" y="153" type="curve" smooth="yes"/>
      <point x="271" y="153"/>
      <point x="326" y="198"/>
      <point x="326" y="286" type="curve" smooth="yes"/>
      <point x="326" y="363"/>
      <point x="283" y="410"/>
      <point x="222" y="410" type="curve" smooth="yes"/>
      <point x="154" y="410"/>
      <point x="106" y="359"/>
      <point x="100" y="229" type="curve"/>
      <point x="133" y="215" type="line"/>
      <point x="137" y="310"/>
      <point x="161" y="337"/>
      <point x="185" y="337" type="curve" smooth="yes"/>
      <point x="208" y="337"/>
      <point x="221" y="315"/>
      <point x="221" y="283" type="curve" smooth="yes"/>
      <point x="221" y="248"/>
      <point x="208" y="226"/>
      <point x="181" y="226" type="curve" smooth="yes"/>
      <point x="144" y="226"/>
      <point x="119" y="271"/>
      <point x="119" y="346" type="curve" smooth="yes"/>
      <point x="119" y="449"/>
      <point x="179" y="509"/>
      <point x="258" y="509" type="curve" smooth="yes"/>
      <point x="333" y="509"/>
      <point x="374" y="473"/>
      <point x="374" y="391" type="curve" smooth="yes"/>
      <point x="374" y="208" type="line"/>
      <point x="501" y="208" type="line"/>
      <point x="501" y="403" type="line" smooth="yes"/>
      <point x="501" y="473"/>
      <point x="530" y="507"/>
      <point x="578" y="507" type="curve" smooth="yes"/>
      <point x="626" y="507"/>
      <point x="654" y="461"/>
      <point x="654" y="369" type="curve" smooth="yes"/>
      <point x="654" y="209"/>
      <point x="615" y="157"/>
      <point x="365" y="123" type="curve" smooth="yes"/>
      <point x="219" y="103"/>
      <point x="42" y="41"/>
      <point x="42" y="-127" type="curve" smooth="yes"/>
      <point x="42" y="-258"/>
      <point x="104" y="-331"/>
    </contour>
  </outline>
</glyph>
<glyph name="nya-tamil" format="2">
  <advance width="1200"/>
  <unicode hex="0B9E"/>
  <note>
uni0B9E
</note>
  <anchor x="599" y="0" name="bottom"/>
  <anchor x="886" y="576" name="imatra"/>
  <anchor x="606" y="-336" name="nukta"/>
  <anchor x="627" y="576" name="top"/>
  <anchor x="594" y="576" name="vedic"/>
  <outline>
    <contour>
      <point x="606" y="-336" type="curve" smooth="yes"/>
      <point x="885" y="-336"/>
      <point x="1159" y="-200"/>
      <point x="1159" y="103" type="curve" smooth="yes"/>
      <point x="1159" y="279"/>
      <point x="1090" y="347"/>
      <point x="1005" y="347" type="curve" smooth="yes"/>
      <point x="917" y="347"/>
      <point x="865" y="261"/>
      <point x="865" y="161" type="curve" smooth="yes"/>
      <point x="865" y="133" type="line"/>
      <point x="887" y="133" type="line"/>
      <point x="887" y="161" type="line" smooth="yes"/>
      <point x="887" y="208"/>
      <point x="907" y="237"/>
      <point x="942" y="237" type="curve" smooth="yes"/>
      <point x="978" y="237"/>
      <point x="1001" y="195"/>
      <point x="1001" y="113" type="curve" smooth="yes"/>
      <point x="1001" y="-155"/>
      <point x="809" y="-264"/>
      <point x="600" y="-264" type="curve" smooth="yes"/>
      <point x="375" y="-264"/>
      <point x="119" y="-110"/>
      <point x="119" y="233" type="curve" smooth="yes"/>
      <point x="119" y="400"/>
      <point x="159" y="519"/>
      <point x="252" y="642" type="curve"/>
      <point x="195" y="686" type="line"/>
      <point x="88" y="543"/>
      <point x="46" y="414"/>
      <point x="46" y="227" type="curve" smooth="yes"/>
      <point x="46" y="-133"/>
      <point x="321" y="-336"/>
    </contour>
    <component base="e-tamil" xOffset="179"/>
  </outline>
</glyph>
<glyph name="tta-tamil" format="2">
  <advance width="784"/>
  <unicode hex="0B9F"/>
  <note>
uni0B9F
</note>
  <anchor x="398" y="0" name="bottom"/>
  <anchor x="398" y="0" name="nukta"/>
  <anchor x="409" y="576" name="top"/>
  <anchor x="415" y="576" name="vedic"/>
  <outline>
    <contour>
      <point x="57" y="0" type="line"/>
      <point x="773" y="0" type="line"/>
      <point x="773" y="67" type="line"/>
      <point x="234" y="67" type="line"/>
      <point x="234" y="576" type="line"/>
      <point x="57" y="576" type="line"/>
    </contour>
  </outline>
</glyph>
<glyph name="ya-tamil" format="2">
  <advance width="883"/>
  <unicode hex="0BAF"/>
  <note>
uni0BAF
</note>
  <anchor x="425" y="0" name="bottom"/>
  <anchor x="822" y="576" name="imatra"/>
  <anchor x="420" y="0" name="nukta"/>
  <anchor x="443" y="576" name="top"/>
  <anchor x="442" y="576" name="vedic"/>
  <outline>
    <contour>
      <point x="199" y="-12" type="curve" smooth="yes"/>
      <point x="256" y="-12"/>
      <point x="296" y="11"/>
      <point x="330" y="61" type="curve"/>
      <point x="330" y="0" type="line"/>
      <point x="826" y="0" type="line"/>
      <point x="826" y="576" type="line"/>
      <point x="648" y="576" type="line"/>
      <point x="648" y="67" type="line"/>
      <point x="481" y="67" type="line"/>
      <point x="481" y="576" type="line"/>
      <point x="311" y="576" type="line"/>
      <point x="311" y="137" type="line" smooth="yes"/>
      <point x="311" y="98"/>
      <point x="290" y="78"/>
      <point x="267" y="78" type="curve" smooth="yes"/>
      <point x="240" y="78"/>
      <point x="228" y="90"/>
      <point x="228" y="141" type="curve" smooth="yes"/>
      <point x="228" y="576" type="line"/>
      <point x="52" y="576" type="line"/>
      <point x="52" y="159" type="line" smooth="yes"/>
      <point x="52" y="43"/>
      <point x="115" y="-12"/>
    </contour>
  </outline>
</glyph>
<glyph name="va-tamil" format="2">
  <advance width="988"/>
  <unicode hex="0BB5"/>
  <note>
uni0BB5
</note>
  <anchor x="519" y="0" name="bottom"/>
  <anchor x="754" y="576" name="imatra"/>
  <anchor x="508" y="0" name="nukta"/>
  <anchor x="492" y="576" name="top"/>
  <anchor x="501" y="576" name="vedic"/>
  <outline>
    <contour>
      <point x="244" y="-5" type="curve" smooth="yes"/>
      <point x="350" y="-5"/>
      <point x="424" y="62"/>
      <point x="424" y="175" type="curve" smooth="yes"/>
      <point x="424" y="267"/>
      <point x="372" y="342"/>
      <point x="278" y="342" type="curve" smooth="yes"/>
      <point x="172" y="342"/>
      <point x="117" y="241"/>
      <point x="113" y="117" type="curve"/>
      <point x="155" y="90" type="line"/>
      <point x="159" y="179"/>
      <point x="179" y="235"/>
      <point x="220" y="235" type="curve" smooth="yes"/>
      <point x="248" y="235"/>
      <point x="267" y="205"/>
      <point x="267" y="160" type="curve" smooth="yes"/>
      <point x="267" y="106"/>
      <point x="249" y="77"/>
      <point x="211" y="77" type="curve" smooth="yes"/>
      <point x="161" y="77"/>
      <point x="114" y="150"/>
      <point x="114" y="261" type="curve" smooth="yes"/>
      <point x="114" y="415"/>
      <point x="198" y="504"/>
      <point x="308" y="504" type="curve" smooth="yes"/>
      <point x="439" y="504"/>
      <point x="509" y="414"/>
      <point x="509" y="262" type="curve" smooth="yes"/>
      <point x="509" y="176"/>
      <point x="493" y="106"/>
      <point x="470" y="48" type="curve"/>
      <point x="493" y="0" type="line"/>
      <point x="931" y="0" type="line"/>
      <point x="931" y="576" type="line"/>
      <point x="753" y="576" type="line"/>
      <point x="753" y="67" type="line"/>
      <point x="583" y="67" type="line"/>
      <point x="640" y="129"/>
      <point x="680" y="198"/>
      <point x="680" y="291" type="curve" smooth="yes"/>
      <point x="680" y="493"/>
      <point x="536" y="581"/>
      <point x="360" y="581" type="curve" smooth="yes"/>
      <point x="153" y="581"/>
      <point x="42" y="447"/>
      <point x="42" y="262" type="curve" smooth="yes"/>
      <point x="42" y="109"/>
      <point x="119" y="-5"/>
    </contour>
  </outline>
</glyph>
<glyph name="sa-tamil" format="2">
  <advance width="1224"/>
  <unicode hex="0BB8"/>
  <note>
uni0BB8
</note>
  <anchor x="648" y="0" name="bottom"/>
  <anchor x="643" y="0" name="nukta"/>
  <anchor x="640" y="576" name="top"/>
  <anchor x="643" y="576" name="vedic"/>
  <outline>
    <contour>
      <point x="503" y="0" type="line"/>
      <point x="678" y="0" type="line"/>
      <point x="678" y="437" type="line" smooth="yes"/>
      <point x="678" y="493"/>
      <point x="700" y="509"/>
      <point x="730" y="509" type="curve" smooth="yes"/>
      <point x="760" y="509"/>
      <point x="782" y="490"/>
      <point x="782" y="445" type="curve" smooth="yes"/>
      <point x="782" y="172" type="line" smooth="yes"/>
      <point x="782" y="63"/>
      <point x="826" y="-5"/>
      <point x="950" y="-5" type="curve" smooth="yes"/>
      <point x="1081" y="-5"/>
      <point x="1177" y="98"/>
      <point x="1177" y="304" type="curve" smooth="yes"/>
      <point x="1177" y="407"/>
      <point x="1146" y="488"/>
      <point x="1090" y="581" type="curve"/>
      <point x="1028" y="545" type="line"/>
      <point x="1077" y="462"/>
      <point x="1106" y="389"/>
      <point x="1106" y="295" type="curve" smooth="yes"/>
      <point x="1106" y="152"/>
      <point x="1048" y="83"/>
      <point x="1001" y="83" type="curve" smooth="yes"/>
      <point x="972" y="83"/>
      <point x="960" y="104"/>
      <point x="960" y="161" type="curve" smooth="yes"/>
      <point x="960" y="391" type="line" smooth="yes"/>
      <point x="960" y="518"/>
      <point x="862" y="580"/>
      <point x="740" y="580" type="curve" smooth="yes"/>
      <point x="629" y="580"/>
      <point x="537" y="528"/>
      <point x="537" y="425" type="curve" smooth="yes"/>
      <point x="537" y="353" type="line"/>
      <point x="503" y="353" type="line"/>
    </contour>
    <contour>
      <point x="243" y="-5" type="curve" smooth="yes"/>
      <point x="348" y="-5"/>
      <point x="422" y="62"/>
      <point x="422" y="175" type="curve" smooth="yes"/>
      <point x="422" y="267"/>
      <point x="371" y="342"/>
      <point x="276" y="342" type="curve" smooth="yes"/>
      <point x="170" y="342"/>
      <point x="115" y="241"/>
      <point x="111" y="117" type="curve"/>
      <point x="153" y="90" type="line"/>
      <point x="157" y="179"/>
      <point x="178" y="235"/>
      <point x="218" y="235" type="curve" smooth="yes"/>
      <point x="246" y="235"/>
      <point x="266" y="205"/>
      <point x="266" y="160" type="curve" smooth="yes"/>
      <point x="266" y="106"/>
      <point x="247" y="77"/>
      <point x="209" y="77" type="curve" smooth="yes"/>
      <point x="159" y="77"/>
      <point x="112" y="150"/>
      <point x="112" y="261" type="curve" smooth="yes"/>
      <point x="112" y="415"/>
      <point x="195" y="501"/>
      <point x="314" y="501" type="curve" smooth="yes"/>
      <point x="445" y="501"/>
      <point x="503" y="416"/>
      <point x="503" y="287" type="curve"/>
      <point x="573" y="303" type="line"/>
      <point x="563" y="500"/>
      <point x="437" y="581"/>
      <point x="311" y="581" type="curve" smooth="yes"/>
      <point x="139" y="581"/>
      <point x="41" y="447"/>
      <point x="41" y="262" type="curve" smooth="yes"/>
      <point x="41" y="109"/>
      <point x="118" y="-5"/>
    </contour>
  </outline>
</glyph>
<glyph name="six-tamil" format="2">
  <advance width="1063"/>
  <unicode hex="0BEC"/>
  <note>
uni0BEC
</note>
  <outline>
    <contour>
      <point x="244" y="-4" type="curve" smooth="yes"/>
      <point x="383" y="-4"/>
      <point x="476" y="65"/>
      <point x="476" y="203" type="curve" smooth="yes"/>
      <point x="476" y="273" type="line"/>
      <point x="509" y="273" type="line" smooth="yes"/>
      <point x="536" y="273"/>
      <point x="553" y="257"/>
      <point x="553" y="223" type="curve" smooth="yes"/>
      <point x="553" y="0" type="line"/>
      <point x="724" y="0" type="line"/>
      <point x="724" y="223" type="line" smooth="yes"/>
      <point x="724" y="258"/>
      <point x="740" y="273"/>
      <point x="769" y="273" type="curve" smooth="yes"/>
      <point x="1029" y="273" type="line"/>
      <point x="1029" y="340" type="line"/>
      <point x="729" y="340" type="line" smooth="yes"/>
      <point x="685" y="340"/>
      <point x="652" y="313"/>
      <point x="639" y="265" type="curve"/>
      <point x="625" y="313"/>
      <point x="593" y="340"/>
      <point x="544" y="340" type="curve" smooth="yes"/>
      <point x="476" y="340" type="line"/>
      <point x="476" y="509" type="line"/>
      <point x="597" y="509" type="line"/>
      <point x="597" y="576" type="line"/>
      <point x="128" y="576" type="line"/>
      <point x="128" y="303" type="line"/>
      <point x="198" y="303" type="line"/>
      <point x="198" y="509" type="line"/>
      <point x="298" y="509" type="line"/>
      <point x="298" y="340" type="line"/>
      <point x="192" y="340" type="line" smooth="yes"/>
      <point x="117" y="340"/>
      <point x="41" y="274"/>
      <point x="41" y="178" type="curve" smooth="yes"/>
      <point x="41" y="72"/>
      <point x="106" y="-4"/>
    </contour>
    <contour>
      <point x="198" y="78" type="curve" smooth="yes"/>
      <point x="152" y="78"/>
      <point x="111" y="113"/>
      <point x="111" y="176" type="curve" smooth="yes"/>
      <point x="111" y="231"/>
      <point x="137" y="273"/>
      <point x="194" y="273" type="curve" smooth="yes"/>
      <point x="298" y="273" type="line"/>
      <point x="298" y="191" type="line" smooth="yes"/>
      <point x="298" y="111"/>
      <point x="258" y="78"/>
    </contour>
    <contour>
      <point x="805" y="0" type="line"/>
      <point x="978" y="0" type="line"/>
      <point x="978" y="297" type="line"/>
      <point x="805" y="297" type="line"/>
    </contour>
  </outline>
</glyph>
<glyph name="ten-tamil" format="2">
  <advance width="814"/>
  <unicode hex="0BF0"/>
  <note>
uni0BF0
</note>
  <outline>
    <contour>
      <point x="498" y="-5" type="curve" smooth="yes"/>
      <point x="640" y="-5"/>
      <point x="757" y="120"/>
      <point x="757" y="349" type="curve" smooth="yes"/>
      <point x="757" y="640"/>
      <point x="611" y="801"/>
      <point x="321" y="837" type="curve"/>
      <point x="313" y="767" type="line"/>
      <point x="559" y="736"/>
      <point x="686" y="602"/>
      <point x="686" y="358" type="curve" smooth="yes"/>
      <point x="686" y="157"/>
      <point x="604" y="77"/>
      <point x="538" y="77" type="curve" smooth="yes"/>
      <point x="512" y="77"/>
      <point x="501" y="91"/>
      <point x="501" y="118" type="curve" smooth="yes"/>
      <point x="501" y="576" type="line"/>
      <point x="332" y="576" type="line"/>
      <point x="332" y="155" type="line" smooth="yes"/>
      <point x="332" y="42"/>
      <point x="395" y="-5"/>
    </contour>
    <contour>
      <point x="217" y="-10" type="curve" smooth="yes"/>
      <point x="290" y="-10"/>
      <point x="367" y="28"/>
      <point x="367" y="132" type="curve" smooth="yes"/>
      <point x="367" y="208" type="line"/>
      <point x="332" y="208" type="line"/>
      <point x="332" y="132" type="line" smooth="yes"/>
      <point x="332" y="91"/>
      <point x="309" y="77"/>
      <point x="288" y="77" type="curve" smooth="yes"/>
      <point x="262" y="77"/>
      <point x="243" y="89"/>
      <point x="243" y="142" type="curve" smooth="yes"/>
      <point x="243" y="576" type="line"/>
      <point x="66" y="576" type="line"/>
      <point x="66" y="161" type="line" smooth="yes"/>
      <point x="66" y="43"/>
      <point x="131" y="-10"/>
    </contour>
  </outline>
</glyph>
<glyph name="month-tamil" format="2">
  <advance width="997"/>
  <unicode hex="0BF4"/>
  <note>
uni0BF4
</note>
  <anchor x="381" y="0" name="bottom"/>
  <anchor x="725" y="576" name="imatra"/>
  <anchor x="382" y="0" name="nukta"/>
  <anchor x="372" y="576" name="top"/>
  <anchor x="402" y="576" name="vedic"/>
  <outline>
    <contour>
      <point x="633" y="486" type="curve"/>
      <point x="657" y="508" type="line"/>
      <point x="610" y="558"/>
      <point x="574" y="608"/>
      <point x="574" y="681" type="curve" smooth="yes"/>
      <point x="574" y="776"/>
      <point x="620" y="821"/>
      <point x="686" y="821" type="curve" smooth="yes"/>
      <point x="746" y="821"/>
      <point x="783" y="769"/>
      <point x="783" y="714" type="curve" smooth="yes"/>
      <point x="783" y="675"/>
      <point x="769" y="656"/>
      <point x="741" y="656" type="curve" smooth="yes"/>
      <point x="708" y="656"/>
      <point x="687" y="702"/>
      <point x="687" y="763" type="curve" smooth="yes"/>
      <point x="687" y="855"/>
      <point x="730" y="926"/>
      <point x="805" y="926" type="curve" smooth="yes"/>
      <point x="873" y="926"/>
      <point x="916" y="887"/>
      <point x="916" y="801" type="curve" smooth="yes"/>
      <point x="916" y="592" type="line"/>
      <point x="1023" y="592" type="line"/>
      <point x="1023" y="828" type="line" smooth="yes"/>
      <point x="1023" y="896"/>
      <point x="1052" y="929"/>
      <point x="1111" y="909" type="curve"/>
      <point x="1124" y="978" type="line"/>
      <point x="1038" y="1002"/>
      <point x="983" y="954"/>
      <point x="970" y="877" type="curve"/>
      <point x="966" y="877" type="line"/>
      <point x="943" y="949"/>
      <point x="887" y="990"/>
      <point x="811" y="990" type="curve" smooth="yes"/>
      <point x="700" y="990"/>
      <point x="627" y="888"/>
      <point x="627" y="760" type="curve" smooth="yes"/>
      <point x="627" y="660"/>
      <point x="668" y="585"/>
      <point x="755" y="585" type="curve" smooth="yes"/>
      <point x="826" y="585"/>
      <point x="869" y="634"/>
      <point x="869" y="710" type="curve" smooth="yes"/>
      <point x="869" y="808"/>
      <point x="805" y="887"/>
      <point x="688" y="887" type="curve" smooth="yes"/>
      <point x="583" y="887"/>
      <point x="514" y="809"/>
      <point x="514" y="694" type="curve" smooth="yes"/>
      <point x="514" y="605"/>
      <point x="563" y="544"/>
    </contour>
    <component base="ma-tamil"/>
  </outline>
</glyph>
<glyph name="ellipsis" format="2">
  <advance width="794"/>
  <unicode hex="2026"/>
  <outline>
    <contour>
      <point x="664" y="-8" type="curve" smooth="yes"/>
      <point x="706" y="-8"/>
      <point x="744" y="12"/>
      <point x="744" y="75" type="curve" smooth="yes"/>
      <point x="744" y="138"/>
      <point x="706" y="158"/>
      <point x="664" y="158" type="curve" smooth="yes"/>
      <point x="619" y="158"/>
      <point x="583" y="138"/>
      <point x="583" y="75" type="curve" smooth="yes"/>
      <point x="583" y="12"/>
      <point x="619" y="-8"/>
    </contour>
    <contour>
      <point x="132" y="-8" type="curve" smooth="yes"/>
      <point x="174" y="-8"/>
      <point x="211" y="12"/>
      <point x="211" y="75" type="curve" smooth="yes"/>
      <point x="211" y="138"/>
      <point x="174" y="158"/>
      <point x="132" y="158" type="curve" smooth="yes"/>
      <point x="86" y="158"/>
      <point x="51" y="138"/>
      <point x="51" y="75" type="curve" smooth="yes"/>
      <point x="51" y="12"/>
      <point x="86" y="-8"/>
    </contour>
    <contour>
      <point x="396" y="-8" type="curve" smooth="yes"/>
      <point x="438" y="-8"/>
      <point x="476" y="12"/>
      <point x="476" y="75" type="curve" smooth="yes"/>
      <point x="476" y="138"/>
      <point x="438" y="158"/>
      <point x="396" y="158" type="curve" smooth="yes"/>
      <point x="351" y="158"/>
      <point x="315" y="138"/>
      <point x="315" y="75" type="curve" smooth="yes"/>
      <point x="315" y="12"/>
      <point x="351" y="-8"/>
    </contour>
  </outline>
</glyph>
<glyph name="iMatra-tamil.alt01" format="2">
  <advance width="194"/>
  <note>
uni0BBF
</note>
  <anchor x="-115" y="846" name="top"/>
  <outline>
    <contour>
      <point x="63" y="0" type="line"/>
      <point x="136" y="0" type="line"/>
      <point x="136" y="563" type="line" smooth="yes"/>
      <point x="136" y="757"/>
      <point x="23" y="846"/>
      <point x="-115" y="846" type="curve" smooth="yes"/>
      <point x="-233" y="846"/>
      <point x="-305" y="766"/>
      <point x="-305" y="669" type="curve" smooth="yes"/>
      <point x="-305" y="593"/>
      <point x="-263" y="553"/>
      <point x="-184" y="513" type="curve"/>
      <point x="-159" y="546" type="line"/>
      <point x="-193" y="572"/>
      <point x="-209" y="594"/>
      <point x="-209" y="626" type="curve" smooth="yes"/>
      <point x="-209" y="661"/>
      <point x="-182" y="705"/>
      <point x="-108" y="705" type="curve" smooth="yes"/>
      <point x="-17" y="705"/>
      <point x="63" y="648"/>
      <point x="63" y="522" type="curve" smooth="yes"/>
    </contour>
  </outline>
</glyph>
<glyph name="iiMatra-tamil.alt02" format="2">
  <note>
uni0BC0
</note>
  <anchor x="-309" y="929" name="top"/>
  <outline>
    <contour>
      <point x="-390" y="513" type="curve"/>
      <point x="-364" y="552" type="line"/>
      <point x="-410" y="582"/>
      <point x="-445" y="632"/>
      <point x="-445" y="708" type="curve" smooth="yes"/>
      <point x="-445" y="796"/>
      <point x="-402" y="858"/>
      <point x="-329" y="858" type="curve" smooth="yes"/>
      <point x="-274" y="858"/>
      <point x="-249" y="817"/>
      <point x="-249" y="765" type="curve" smooth="yes"/>
      <point x="-249" y="729"/>
      <point x="-266" y="704"/>
      <point x="-294" y="704" type="curve" smooth="yes"/>
      <point x="-342" y="704"/>
      <point x="-355" y="794"/>
      <point x="-321" y="880" type="curve"/>
      <point x="-367" y="885" type="line"/>
      <point x="-424" y="761"/>
      <point x="-393" y="612"/>
      <point x="-254" y="612" type="curve" smooth="yes"/>
      <point x="-178" y="612"/>
      <point x="-117" y="662"/>
      <point x="-117" y="756" type="curve" smooth="yes"/>
      <point x="-117" y="856"/>
      <point x="-190" y="929"/>
      <point x="-309" y="929" type="curve" smooth="yes"/>
      <point x="-439" y="929"/>
      <point x="-514" y="827"/>
      <point x="-514" y="716" type="curve" smooth="yes"/>
      <point x="-514" y="625"/>
      <point x="-475" y="564"/>
    </contour>
  </outline>
</glyph>
<glyph name="pii-tamil" format="2">
  <advance width="777"/>
  <note>
g122
</note>
  <anchor x="374" y="0" name="bottom"/>
  <anchor x="374" y="0" name="nukta"/>
  <anchor x="619" y="929" name="top"/>
  <anchor x="383" y="576" name="vedic"/>
  <anchor x="712" y="576" name="imatra"/>
  <outline>
    <contour>
      <point x="598" y="509" type="curve" smooth="yes"/>
      <point x="626" y="509" type="line"/>
      <point x="626" y="576" type="line"/>
      <point x="602" y="576" type="line" smooth="yes"/>
      <point x="537" y="576"/>
      <point x="481" y="619"/>
      <point x="481" y="708" type="curve" smooth="yes"/>
      <point x="481" y="797"/>
      <point x="525" y="858"/>
      <point x="599" y="858" type="curve" smooth="yes"/>
      <point x="655" y="858"/>
      <point x="680" y="817"/>
      <point x="680" y="765" type="curve" smooth="yes"/>
      <point x="680" y="729"/>
      <point x="661" y="704"/>
      <point x="633" y="704" type="curve" smooth="yes"/>
      <point x="585" y="704"/>
      <point x="571" y="794"/>
      <point x="605" y="880" type="curve"/>
      <point x="559" y="885" type="line"/>
      <point x="502" y="761"/>
      <point x="534" y="612"/>
      <point x="673" y="612" type="curve" smooth="yes"/>
      <point x="750" y="612"/>
      <point x="813" y="662"/>
      <point x="813" y="756" type="curve" smooth="yes"/>
      <point x="813" y="856"/>
      <point x="739" y="929"/>
      <point x="619" y="929" type="curve" smooth="yes"/>
      <point x="488" y="929"/>
      <point x="413" y="829"/>
      <point x="413" y="712" type="curve" smooth="yes"/>
      <point x="413" y="584"/>
      <point x="482" y="509"/>
    </contour>
    <component base="pa-tamil"/>
  </outline>
</glyph>
<glyph name="vii-tamil" format="2">
  <advance width="987"/>
  <note>
g142
</note>
  <anchor x="510" y="0" name="bottom"/>
  <anchor x="505" y="0" name="nukta"/>
  <anchor x="778" y="929" name="top"/>
  <anchor x="483" y="576" name="vedic"/>
  <anchor x="754" y="576" name="imatra"/>
  <outline>
    <contour>
      <point x="756" y="509" type="curve" smooth="yes"/>
      <point x="789" y="509" type="line"/>
      <point x="789" y="576" type="line"/>
      <point x="761" y="576" type="line" smooth="yes"/>
      <point x="696" y="576"/>
      <point x="637" y="619"/>
      <point x="637" y="708" type="curve" smooth="yes"/>
      <point x="637" y="797"/>
      <point x="684" y="858"/>
      <point x="758" y="858" type="curve" smooth="yes"/>
      <point x="814" y="858"/>
      <point x="839" y="817"/>
      <point x="839" y="765" type="curve" smooth="yes"/>
      <point x="839" y="729"/>
      <point x="820" y="704"/>
      <point x="792" y="704" type="curve" smooth="yes"/>
      <point x="744" y="704"/>
      <point x="730" y="794"/>
      <point x="764" y="880" type="curve"/>
      <point x="718" y="885" type="line"/>
      <point x="661" y="761"/>
      <point x="693" y="612"/>
      <point x="832" y="612" type="curve" smooth="yes"/>
      <point x="908" y="612"/>
      <point x="971" y="662"/>
      <point x="971" y="756" type="curve" smooth="yes"/>
      <point x="971" y="856"/>
      <point x="898" y="929"/>
      <point x="778" y="929" type="curve" smooth="yes"/>
      <point x="646" y="929"/>
      <point x="568" y="829"/>
      <point x="568" y="712" type="curve" smooth="yes"/>
      <point x="568" y="584"/>
      <point x="641" y="509"/>
    </contour>
    <component base="va-tamil"/>
  </outline>
</glyph>
